# xmcd
#
# Track frame offsets:
#	150
#	11853
#	19056
#	26264
#	33515
#	40780
#	47983
#	55221
#	62721
#
# Disc length: 844 seconds
#
# Revision: 1
# Processed by: cddbd v1.5.1PL2 Copyright (c) Steve Scherf et al.
# Submitted via: audiograbber 1.83.01
#
DISCID=70034a09
DTITLE=2 - 2
DYEAR=1
DGENRE=1
TTITLE0=Data Trackz
TTITLE1=Data Track
TTITLE2=Data Track
TTITLE3=Data Track
TTITLE4=Data Track
TTITLE5=Data Track
TTITLE6=Data Track
TTITLE7=Data Track
TTITLE8=Data Track
EXTD=1
EXTT0=
EXTT1=
EXTT2=
EXTT3=
EXTT4=
EXTT5=
EXTT6=
EXTT7=
EXTT8=
PLAYORDER=
